<?xml version="1.0" encoding="utf-8"?><svg xmlns="http://www.w3.org/2000/svg" xmlns:xlink="http://www.w3.org/1999/xlink"><symbol viewBox="0 0 30 91" id="arrow" xmlns="http://www.w3.org/2000/svg"><path fill-rule="evenodd" d="M29.849 89.472l-1.698 1.056-28-45 .045-.028-.045-.028 28-45 1.698 1.056L2.489 45.5l27.36 43.972z"/></symbol><symbol viewBox="0 0 18.41 10.41" id="arrow-down" xmlns="http://www.w3.org/2000/svg"><path fill-rule="evenodd" d="M18.707 1.707l-9 9L9.5 10.5l-.207.207-9-9L1.707.293 9.5 8.086 17.293.293l1.414 1.414z"/></symbol><symbol viewBox="0 0 23.2 24.3" id="arrow-round" xmlns="http://www.w3.org/2000/svg"><title>Векторный смарт-объект5</title><path d="M1 7.2a11.2 11.2 0 1 1 1.8 12.6M2 23.3l-.5-4 4.1-1.2" fill="none"/></symbol><symbol viewBox="0 0 10.71 20.71" id="arrow-thin" xmlns="http://www.w3.org/2000/svg"><path fill-rule="evenodd" d="M11.353 20.646l-.707.707-10-10L1 11l-.354-.354 10-10 .707.707L1.707 11l9.646 9.646z"/></symbol><symbol viewBox="0 0 396.5 397" id="call" xmlns="http://www.w3.org/2000/svg"><title>call</title><path d="M308.3 243.8c-7.8-8.1-17.1-12.4-27-12.4s-19.3 4.2-27.4 12.3l-25.3 25.2-6.2-3.2c-2.9-1.4-5.6-2.8-7.9-4.2-23.7-15-45.2-34.6-65.8-60-10-12.6-16.7-23.3-21.6-34.1 6.6-6 12.6-12.2 18.6-18.2l6.7-6.8c16.8-16.8 16.8-38.6 0-55.4l-21.9-21.8c-2.5-2.5-5-5-7.4-7.6-4.8-5-9.8-10.1-15-14.9C100.3 35 91 30.9 81.3 30.9S62.1 35 54.1 42.7l-.2.2-27.2 27.4a58.5 58.5 0 0 0-17.4 37.2c-1.9 23.4 5 45.1 10.2 59.4 13 35 32.3 67.4 61.2 102.1 35 41.8 77.2 74.9 125.4 98.2 18.4 8.7 43 19 70.4 20.8l5 .2c18.5 0 34-6.6 46.2-19.8l.3-.4a181.2 181.2 0 0 1 14-14.5c3.4-3.3 7-6.7 10.4-10.3 7.9-8.2 12.1-17.8 12.1-27.7s-4.2-19.4-12.3-27.4zm28.6 84.2c-3.1 3.4-6.3 6.4-9.8 9.8a210.3 210.3 0 0 0-15.4 16c-8.1 8.6-17.6 12.7-30.1 12.7H278c-23.8-1.5-45.8-10.8-62.4-18.7a355.4 355.4 0 0 1-118.1-92.6C70.2 222.4 52 192 39.9 159.3c-7.4-19.9-10.2-35.4-9-50.1A36.7 36.7 0 0 1 42 85.5l27.3-27.3c3.9-3.7 8.1-5.7 12.2-5.7s9.1 3 11.7 5.6l.2.2c4.9 4.6 9.5 9.3 14.4 14.3l7.6 7.8 21.8 21.8c8.5 8.5 8.5 16.3 0 24.8l-6.9 6.9c-6.7 6.9-13.1 13.3-20.1 19.5l-.4.4c-6.9 6.9-5.6 13.6-4.2 18.2l.2.7c5.7 13.8 13.7 26.7 25.8 42.2h.1c22.1 27.2 45.4 48.4 71 64.6a108.1 108.1 0 0 0 9.8 5.4c2.9 1.4 5.6 2.8 7.9 4.2l1 .6a17.3 17.3 0 0 0 7.9 2c6.6 0 10.8-4.2 12.2-5.5l27.5-27.3c2.7-2.7 7-6 12.1-6s9 3.1 11.5 5.8l44.2 44.3c8.2 8.2 8.2 16.6.1 25zm0 0M213.6 99.2a103 103 0 0 1 83.8 83.8 10.7 10.7 0 0 0 10.6 9l1.8-.2a10.8 10.8 0 0 0 8.9-12.5A124.5 124.5 0 0 0 217.3 77.9a10.9 10.9 0 0 0-12.5 8.8 10.7 10.7 0 0 0 8.7 12.5zm0 0M387.3 176.2a205 205 0 0 0-167-167 10.8 10.8 0 1 0-3.5 21.3 183.1 183.1 0 0 1 149.3 149.2 10.7 10.7 0 0 0 10.6 9l1.8-.2a10.6 10.6 0 0 0 8.8-12.3zm0 0"/></symbol><symbol viewBox="0 0 65.2 65.5" id="call-thin" xmlns="http://www.w3.org/2000/svg"><title>1</title><path d="M63 56.7l-2 2a42.6 42.6 0 0 0-3.1 3.3 7.8 7.8 0 0 1-6.1 2.6H51c-4.8-.3-9.3-2.2-12.6-3.8A71.9 71.9 0 0 1 14.5 42 65.7 65.7 0 0 1 2.9 22.6a23.1 23.1 0 0 1-1.8-10.1 7.4 7.4 0 0 1 2.2-4.8l5.5-5.6A3.7 3.7 0 0 1 11.3 1a3.5 3.5 0 0 1 2.4 1.1L16.6 5l1.5 1.6 4.4 4.4c1.7 1.7 1.7 3.3 0 5l-1.4 1.4c-1.4 1.4-2.7 2.7-4.1 3.9a3.3 3.3 0 0 0-.8 3.7 35.5 35.5 0 0 0 5.2 8.5A59.4 59.4 0 0 0 35.8 47l2 1.1 1.6.9h.2a3.5 3.5 0 0 0 1.6.4 3.5 3.5 0 0 0 2.5-1.1l5.5-5.5a3.7 3.7 0 0 1 2.4-1.2 3.3 3.3 0 0 1 2.4 1.1l9 9c1.7 1.7 1.7 3.4 0 5.1zm0 0M38.4 10.4h.8a14.4 14.4 0 0 1 14.4 14.4v.3" fill="none"/><path d="M38 5.7h2a18.1 18.1 0 0 1 18.1 18q0 .8-.1 1.6" fill="none"/></symbol><symbol viewBox="0 0 379.7 407.3" stroke-miterlimit="10" stroke-width="18" id="cart" xmlns="http://www.w3.org/2000/svg"><title>cart</title><path d="M112.1 265.3h214.5a44.3 44.3 0 0 0 44.2-44.2v-91.2a1 1 0 0 0-.1-.5c0-.2-.1-.4-.1-.6s-.1-.3-.1-.5a4.4 4.4 0 0 1-.2-.6l-.2-.5-.2-.5-.2-.6-.2-.4-.2-.5-.2-.4-.3-.5-.3-.4-.3-.4-.3-.4-.3-.3-.4-.4-.4-.3-.5-.3-.4-.2-.5-.3-1-.5-.5-.2-.5-.2-.6-.2h-1.4L89.6 82.7v-38a5.1 5.1 0 0 0-.1-1.1.6.6 0 0 0-.1-.3c0-.2-.1-.5-.1-.7l-.2-.6c0-.2-.1-.2-.1-.4l-.2-.7v-.3l-.3-.6-.2-.3-.3-.5-.2-.4-.2-.4-.3-.5-.7-.7-.2-.2-.6-.5-.3-.2-.5-.4-.6-.4-.2-.2-1-.5L24 9.9a10.8 10.8 0 1 0-8.4 19.9l52.3 22.1v236.6a44.2 44.2 0 0 0 38.5 43.8 43.6 43.6 0 1 0 81 22.4 42.8 42.8 0 0 0-6-22h97.1a43 43 0 0 0-6 22 43.6 43.6 0 1 0 43.6-43.6h-204a22.6 22.6 0 0 1-22.6-22.6v-29.3a44.7 44.7 0 0 0 22.6 6.1zm53.8 89.3a22 22 0 1 1-22-22 22 22 0 0 1 22 22zm172.3 0a22 22 0 1 1-22-22 22 22 0 0 1 22 22zm-11.6-110.9H112.1a22.6 22.6 0 0 1-22.6-22.6V104.4l259.6 35.8v80.9a22.6 22.6 0 0 1-22.6 22.6zm0 0"/></symbol><symbol viewBox="0 0 19.8 26.6" id="compare" xmlns="http://www.w3.org/2000/svg"><title>i</title><path fill="none" stroke="#299ee1" stroke-linecap="round" stroke-miterlimit="10" stroke-width="2" d="M4.3 1v24M1 21.7l3.5 3.5 3.3-3.4"/><path fill="none" stroke="#299ee1" stroke-linecap="round" stroke-linejoin="round" stroke-width="2" d="M15.3 25v.2V1M12 4.5L15.5 1l3.3 3.3M4.3 1h5M10.3 25h5"/></symbol><symbol viewBox="0 0 27 58.6" id="fb" xmlns="http://www.w3.org/2000/svg"><title>fb</title><path d="M25.9 29.2h-8v29.4H5.8V29.2H0V18.9h5.8v-6.7C5.8 7.5 8 0 18 0h9v10h-6.5a2.5 2.5 0 0 0-2.6 2.8v6.1H27zm0 0"/></symbol><symbol viewBox="0 0 33.8 33.8" id="instagram" xmlns="http://www.w3.org/2000/svg"><title>instagram</title><path d="M27.6 0H6.2A6.2 6.2 0 0 0 0 6.2v21.4a6.2 6.2 0 0 0 6.2 6.2h21.4a6.2 6.2 0 0 0 6.2-6.2V6.2A6.2 6.2 0 0 0 27.6 0zM16.9 28A11.1 11.1 0 1 1 28 16.9 11.1 11.1 0 0 1 16.9 28zM28.4 8.1A2.6 2.6 0 1 1 31 5.4 2.6 2.6 0 0 1 28.4 8zm0 0"/><path d="M16.9 10.5a6.4 6.4 0 1 0 6.4 6.4 6.4 6.4 0 0 0-6.4-6.4zm0 0"/></symbol><symbol viewBox="0 0 378.7 378.8" stroke-miterlimit="10" stroke-width="18" id="lens" xmlns="http://www.w3.org/2000/svg"><title>lens</title><path d="M366.6 351.4l-87.7-87.7a153.2 153.2 0 0 0 37.8-100.9C316.7 78 247.6 9 162.8 9S9 78 9 162.8s69 153.9 153.8 153.9a153.2 153.2 0 0 0 100.9-37.8l87.7 87.7a10.9 10.9 0 0 0 7.6 3.2 10.5 10.5 0 0 0 7.6-3.2 10.8 10.8 0 0 0 0-15.2zM30.5 162.8c0-73 59.4-132.2 132.2-132.2S295 90 295 162.8s-59.3 132.4-132.2 132.4S30.5 235.8 30.5 162.8zm0 0"/></symbol><symbol viewBox="0 0 17.13 19.25" id="list" xmlns="http://www.w3.org/2000/svg"><path fill-rule="evenodd" d="M6.042 20v-3h12v3h-12zm0-11h12v3h-12V9zm0-8h12v3h-12V1zM.917 16.75h3v3h-3v-3zm0-8h3v3h-3v-3zm0-8h3v3h-3v-3z"/></symbol><symbol viewBox="0 0 23.2 24.3" id="load" xmlns="http://www.w3.org/2000/svg"><title>load</title><path d="M1 7.2a11.2 11.2 0 1 1 1.8 12.6M2 23.3l-.5-4 4.1-1.2" fill="none"/></symbol><symbol viewBox="0 0 53 79" id="lock" xmlns="http://www.w3.org/2000/svg"><title>Векторный смарт-объект5</title><rect x="1" y="27" width="51" height="51" rx="6.8" ry="6.8" fill="none" stroke="#299ee1" stroke-linecap="round" stroke-miterlimit="10" stroke-width="2"/><path d="M33.2 46.9a7 7 0 1 0-14 0 6.8 6.8 0 0 0 4.8 6.7v9.7a2.6 2.6 0 0 0 2.5 2.7h.3c1.4 0 2.2-1.3 2.2-2.7v-10a6.3 6.3 0 0 0 4.2-6.4zM9 27v-9.1a17 17 0 0 1 34 0V27" fill="none" stroke="#299ee1" stroke-linecap="round" stroke-miterlimit="10" stroke-width="2"/></symbol><symbol viewBox="0 0 146.2 193.7" id="logo" xmlns="http://www.w3.org/2000/svg"><title>KRсистемы-лого-квадрат-rus-lightblue(1)</title><path d="M134.5 0H11.8A11.8 11.8 0 0 0 0 11.8V182a11.8 11.8 0 0 0 11.8 11.8h122.7a11.8 11.8 0 0 0 11.7-11.8V11.8A11.8 11.8 0 0 0 134.5 0z" fill="#00a8e1"/><path d="M108.2 107q-3 2.5-9.7 2.5h-6.6l7.5 14.2a52 52 0 0 0 10.1-1.1 27.5 27.5 0 0 0 9.6-3.9 20.8 20.8 0 0 0 6.8-7.4 23.9 23.9 0 0 0 2.6-11.6v-.9a23.9 23.9 0 0 0-2.6-11.6 20.8 20.8 0 0 0-6.8-7.4 26.8 26.8 0 0 0-9.6-3.9 55.7 55.7 0 0 0-11.1-1.1l-7.2.2-15-27.2a5.3 5.3 0 1 0-2.6.7v26.8H57.3a2.4 2.4 0 0 0-2.2 1.2L33.2 109V77.2a1.8 1.8 0 0 0-.6-1.3 2 2 0 0 0-1.4-.5H18.1a2 2 0 0 0-1.4.5 1.8 1.8 0 0 0-.6 1.3v70.3a2 2 0 0 0 2 2h13.1a2 2 0 0 0 2-2v-32.3l20.3 33 .8 1a2 2 0 0 0 1.3.4h32.8a2 2 0 0 0 2-2V88.9h8.1q6.3 0 9.5 2.2t3.2 7.6v.9q0 4.9-3 7.4zM73.5 79.7v67.2l-23.6-35.3 23.6-33.5v1.7zm-5.2-10.5V64a22.1 22.1 0 1 1 20.5-5.3l2.5 4.5a27.1 27.1 0 1 0-23 5.9zm18-15.1a17 17 0 1 0-18 4.6v-5.4a11.9 11.9 0 1 1 15.3-3.9zM42.8 161.2h-2.3a1.1 1.1 0 0 0-.5.5l-7.1 11.9h-.1v-11.8a.6.6 0 0 0-.2-.4h-2c-.4 0-.5.2-.5.6v15a.9.9 0 0 0 .9.9h2.3l.4-.4 7-11.9c.1-.1.1-.1.1 0v11.8a.6.6 0 0 0 .2.4l.4.2H43l.4-.2a.6.6 0 0 0 .2-.4v-15.3a1.1 1.1 0 0 0-.2-.7zm-16.6.1l-1.7-.2h-2a6.8 6.8 0 0 0-2.8.5 5.6 5.6 0 0 0-2 1.5 6.5 6.5 0 0 0-1.2 2.3 10.2 10.2 0 0 0-.4 3v2.4a10.2 10.2 0 0 0 .4 3 6.3 6.3 0 0 0 1.3 2.3 5.7 5.7 0 0 0 2 1.5 6.7 6.7 0 0 0 2.7.5h2l1.7-.2.5-.2a.7.7 0 0 0 .1-.5V176a.4.4 0 0 0-.2-.4h-.4l-1.8.2h-2a3.4 3.4 0 0 1-2.8-1.2 6.1 6.1 0 0 1-1-3.8v-2.4a6 6 0 0 1 1-3.8 3.4 3.4 0 0 1 2.8-1.2h1.9l1.8.2h.4a.4.4 0 0 0 .2-.4V162a.7.7 0 0 0-.1-.5zm31.2 0l-1.7-.2h-2a6.8 6.8 0 0 0-2.8.5 5.6 5.6 0 0 0-2 1.5 6.5 6.5 0 0 0-1.2 2.3 10.2 10.2 0 0 0-.4 3v2.4a10.2 10.2 0 0 0 .4 3 6.3 6.3 0 0 0 1.3 2.3 5.7 5.7 0 0 0 2 1.5 6.7 6.7 0 0 0 2.7.5h2l1.7-.2.5-.2a.7.7 0 0 0 .1-.5V176a.4.4 0 0 0-.2-.4h-.4l-1.8.2h-2a3.4 3.4 0 0 1-2.8-1.2 6.1 6.1 0 0 1-1-3.8v-2.4a6 6 0 0 1 1-3.8 3.4 3.4 0 0 1 2.8-1.2h1.9l1.8.2h.4a.4.4 0 0 0 .2-.4V162a.7.7 0 0 0-.1-.5zm66.5 7.4a7.4 7.4 0 0 0-2.4-.9l-3-.3h-2.8v-5.9a.6.6 0 0 0-.2-.4l-.4-.2h-1.5l-.4.2a.6.6 0 0 0-.2.4v15.2a.8.8 0 0 0 .2.6l.7.2h4.6l3-.3a7.4 7.4 0 0 0 2.4-.9 4.5 4.5 0 0 0 1.6-1.6 4.7 4.7 0 0 0 .6-2.4v-.2a4.7 4.7 0 0 0-.6-2.4 4.5 4.5 0 0 0-1.6-1zm-.5 4.2a2.2 2.2 0 0 1-1.3 2.2 9 9 0 0 1-3.8.6h-2.8v-5.6h2.8a9 9 0 0 1 3.8.6 2.2 2.2 0 0 1 1.3 2.2zm-15.2-11.8h-2.6l-.4.4-4.3 7.8-.2.2-.2-.2-4.3-7.8-.4-.4h-2.4l-.4.2a.6.6 0 0 0-.2.4v15.5a.6.6 0 0 0 .2.4l.4.2h1.4l.4-.2a.6.6 0 0 0 .2-.4v-12.7l3.5 6.4.5.5.8.2h1.2l.8-.2.5-.5 3.5-6.4v12.8a.6.6 0 0 0 .2.4l.4.2h1.4l.4-.2a.6.6 0 0 0 .2-.4v-15.5a.6.6 0 0 0-.2-.4zm-20.7 1.7a5.5 5.5 0 0 0-2.1-1.4 7.8 7.8 0 0 0-2.9-.5 6.4 6.4 0 0 0-5 1.9 7.4 7.4 0 0 0-1.7 5.2v2.7a9.1 9.1 0 0 0 .6 3.5 6 6 0 0 0 1.5 2.2 5.6 5.6 0 0 0 2.2 1.2 9.4 9.4 0 0 0 2.5.3h2.8l2.6-.4.5-.2a.8.8 0 0 0 .1-.5v-1a.4.4 0 0 0-.2-.4h-.5l-2.6.2h-2.6a4.1 4.1 0 0 1-3.2-1.1 5.5 5.5 0 0 1-1.1-3.8v-.4h10.2q.6 0 .6-.7V168a9.5 9.5 0 0 0-.4-2.9 6.1 6.1 0 0 0-1.3-2.2zm-1 5.4h-8v-.3a5.3 5.3 0 0 1 1-3.6 3.9 3.9 0 0 1 3-1.2 3.8 3.8 0 0 1 3 1.1 5.4 5.4 0 0 1 1 3.7v.3zM73.6 161H61l-.4.2a.6.6 0 0 0-.2.4v1a.6.6 0 0 0 .2.4l.4.2h5v13.9a.6.6 0 0 0 .2.4l.4.2H68l.4-.2a.6.6 0 0 0 .2-.4v-13.7h5l.4-.2a.6.6 0 0 0 .2-.4v-1a.6.6 0 0 0-.2-.4zm57.3.2l-.4-.2H129l-.4.2a.6.6 0 0 0-.2.4v15.5a.6.6 0 0 0 .2.4l.4.2h1.5l.4-.2a.6.6 0 0 0 .2-.4v-15.3a.6.6 0 0 0-.1-.4zM114 149.5h15.4q1.5 0 1.5-1.2a2.5 2.5 0 0 0-.3-1.1l-12.1-22.4a33.9 33.9 0 0 1-8 2.8 56.5 56.5 0 0 1-8.4 1.1l9.9 18.8.8 1.4a1.4 1.4 0 0 0 1.2.6z" fill="#fff"/></symbol><symbol viewBox="0 0 67 53" id="mail" xmlns="http://www.w3.org/2000/svg"><title>Векторный смарт-объект5</title><rect x="1" y="1" width="65" height="51" rx="4.4" ry="4.4" fill="none"/><path fill="none" d="M1.7 3L34 35.3 65 3.2M27.2 29.4L3 49.9M40.5 29.4l24.2 20.5"/></symbol><symbol viewBox="0 0 64.5 74.1" id="map-i" xmlns="http://www.w3.org/2000/svg"><title>Векторный смарт-объект2</title><path d="M52.4 21.1a20.1 20.1 0 1 0-40.2 0c0 6 3.1 10.9 6.8 15s14 20.5 14 20.5 8.6-15.8 12.5-20.4 6.9-9 6.9-15.1z" fill="none"/><circle cx="32.5" cy="21.2" r="5.9" fill="none"/><path fill="none" d="M20.8 37.4L9.6 42.5 1 71.4l20.5-7 11.3 8.7h.2l11.3-8.7 19.2 7-8.6-28.9-10.2-4.4"/></symbol><symbol viewBox="0 0 24.2 22.5" fill="none" stroke-linecap="round" stroke-miterlimit="10" stroke-width="2" id="men" xmlns="http://www.w3.org/2000/svg"><title>1</title><circle cx="12.3" cy="6" r="5"/><path d="M18.8 9.4h-.1a7.2 7.2 0 0 1-13.2-.1l-4.1 3.9 6.7 8.3h8.1l6.7-8.3z"/></symbol><symbol viewBox="0 0 29 33.4" id="play" xmlns="http://www.w3.org/2000/svg"><title>play</title><path fill="transparent" stroke="#fff" stroke-width="4" d="M25 16.7L2 3.5V30l23-13.3z"/></symbol><symbol viewBox="0 0 115 151" id="signal" xmlns="http://www.w3.org/2000/svg"><title>signal</title><path d="M37.2 83.8a40 40 0 1 1 30.3-6.6M36.9 69.4A26 26 0 1 1 61 64.6" fill="none" stroke="#000" stroke-linecap="round" stroke-miterlimit="10" stroke-width="9"/><circle cx="44.5" cy="44.5" r="15.5"/><path d="M44 56.3V151h71L44 56.3z"/></symbol><symbol viewBox="0 0 115 151" id="signal-light" xmlns="http://www.w3.org/2000/svg"><title>signal</title><path d="M37.2 83.8a40 40 0 1 1 30.3-6.6M36.9 69.4A26 26 0 1 1 61 64.6" fill="none" stroke="#fff" stroke-linecap="round" stroke-miterlimit="10" stroke-width="9"/><circle cx="44.5" cy="44.5" r="15.5"/><path d="M44 56.3V151h71L44 56.3z"/></symbol><symbol viewBox="0 0 266.6 224.6" id="telegram" xmlns="http://www.w3.org/2000/svg"><title>telegram</title><path d="M249.5.9L5.7 95.9a8.9 8.9 0 0 0 .7 16.8l62 18.3 23.1 73.4a10.6 10.6 0 0 0 17.7 4.2l32-32.7 62.9 46.1a13.1 13.1 0 0 0 20.6-7.9l41.6-199A12.5 12.5 0 0 0 249.5.9zM218.9 45L105.7 145.2a6.1 6.1 0 0 0-2 3.9l-4.4 38.8a1.2 1.2 0 0 1-2.3.2l-18-57.9a6.1 6.1 0 0 1 2.6-7l133.8-82.9a3 3 0 0 1 3.5 4.7zm0 0"/></symbol><symbol viewBox="0 0 19 19" id="tile" xmlns="http://www.w3.org/2000/svg"><path fill-rule="evenodd" d="M11 19v-8h8v8h-8zm0-19h8v8h-8V0zM0 11h8v8H0v-8zM0 0h8v8H0V0z"/></symbol><symbol viewBox="0 0 228.1 235.7" id="viber" xmlns="http://www.w3.org/2000/svg"><title>viber</title><path d="M223 56.7v-.3c-5.5-22.2-30.3-46.1-53.1-51.1h-.3a294.9 294.9 0 0 0-111 0h-.3c-22.8 5-47.6 28.8-53.1 51.1v.3a217.4 217.4 0 0 0 0 93.6v.3c5.3 21.3 28.2 44.1 50.2 50.3v24.8a10 10 0 0 0 17.2 6.9l25.2-26.2c5.5.3 10.9.5 16.4.5a296.1 296.1 0 0 0 55.5-5.3h.3c22.8-5 47.6-28.8 53.1-51.1v-.3a217.4 217.4 0 0 0-.1-93.5zM64.4 225.9l2.4.3a2.3 2.3 0 0 1-2.4-.3zm104.4-78c-3.2 6.7-7.8 12.3-14.4 15.9-1.9 1-4.1 1.3-6.2 2s-4.8-1.2-6.9-2.1c-22.3-9.3-42.9-21.2-59.2-39.5-9.3-10.4-16.5-22.2-22.6-34.6-2.9-5.9-5.4-12-7.8-18.1s1.1-11.3 4.6-15.5a36.4 36.4 0 0 1 12.2-9.2c3.6-1.7 7.2-.7 9.8 2.3a126.1 126.1 0 0 1 15 21.2c2.6 4.7 1.9 10.5-2.8 13.7-1.1.8-2.2 1.7-3.3 2.6a10.8 10.8 0 0 0-2.5 2.6 7.1 7.1 0 0 0-.5 6.2c5.8 16 15.6 28.4 31.7 35.1 2.6 1.1 5.2 2.3 8.1 2 5-.6 6.6-6 10.1-8.9a9.5 9.5 0 0 1 11.4-.5c3.7 2.3 7.2 4.8 10.7 7.3a122.3 122.3 0 0 1 10.1 7.7c3.2 2.7 4.3 6.2 2.5 9.9zm-28.8-52h-.3a3.6 3.6 0 0 1-3.7-3.5 36.5 36.5 0 0 0-.7-4.7 13.1 13.1 0 0 0-4.8-7.6 12.7 12.7 0 0 0-3.9-1.9c-1.8-.5-3.7-.4-5.4-.8a3.3 3.3 0 0 1-2.7-3.9 3.5 3.5 0 0 1 3.7-2.8c11.3.8 19.4 6.7 20.6 20a9.2 9.2 0 0 1 0 2.8 2.9 2.9 0 0 1-2.4 2.4zm-7-30.5a39.9 39.9 0 0 0-11-3.4l-5-.7a3.2 3.2 0 0 1-3-3.6 3.1 3.1 0 0 1 3.5-3.1 45.9 45.9 0 0 1 19.1 5c12.1 6.4 19 16.6 21.1 30.1l.3 1.8c.1.6.2 3 .3 5a13.6 13.6 0 0 1-.3 2c-.8 2.9-5.2 3.3-6.2.3a8.9 8.9 0 0 1-.4-2.8 35.4 35.4 0 0 0-4.5-17.7 33 33 0 0 0-14-12.9zm37.4 41.8c-2.3 0-3.4-1.9-3.5-4-.3-4.2-.5-8.3-1.1-12.5a52.2 52.2 0 0 0-42-43.6c-3.3-.6-6.6-.7-9.9-1.1s-4.8-.3-5.3-2.9a3.6 3.6 0 0 1 3.5-4h1.7c27.9.8 1.9.1.1 0 29.2.9 53.1 20.2 58.3 49.1.9 4.9 1.2 10 1.6 14.9.1 2.1-1.1 4.1-3.4 4.1z"/></symbol><symbol viewBox="0 0 58.9 33.6" id="vk" xmlns="http://www.w3.org/2000/svg"><title>vk</title><path d="M28.8 33.5h3.5a3 3 0 0 0 1.6-.7 2.6 2.6 0 0 0 .5-1.5s-.1-4.7 2.1-5.4 4.9 4.6 7.9 6.6a5.6 5.6 0 0 0 3.9 1.2h7.9s4.1-.3 2.2-3.5c-.2-.3-1.1-2.4-5.9-6.8s-4.3-3.8 1.7-11.8c3.6-4.8 5.1-7.8 4.6-9s-3.1-.9-3.1-.9h-8.8a2 2 0 0 0-1.1.2 2.5 2.5 0 0 0-.8 1 51.1 51.1 0 0 1-3.3 6.9c-3.9 6.7-5.5 7.1-6.2 6.6s-1.1-3.9-1.1-6c0-6.5 1-9.2-1.9-9.9a15 15 0 0 0-4.2-.5c-3.2 0-5.8 0-7.4.8s-1.8 1.6-1.3 1.7a4 4 0 0 1 2.6 1.3c.9 1.2.9 4 .9 4s.5 7.6-1.2 8.6-2.8-.7-6.4-6.8A56.6 56.6 0 0 1 12.4 3a2.6 2.6 0 0 0-.7-1 3.7 3.7 0 0 0-1.4-.5H1.9s-1.2.1-1.7.6 0 1.5 0 1.5 6.5 15.4 14 23.2 14.6 6.7 14.6 6.7zm0 0" fill-rule="evenodd"/></symbol><symbol viewBox="0 0 227 227.2" id="whatsapp" xmlns="http://www.w3.org/2000/svg"><title>whatsapp</title><path d="M113.6 0a113.4 113.4 0 0 0-97.7 170.8L0 227.2l58.2-15A113.4 113.4 0 1 0 113.6 0zm69.9 143.8l-1.3 6.2a26.7 26.7 0 0 1-11.6 16.9c-7.6 4.8-17.4 7.2-29.8 3.7-38.7-10.9-60.5-36.5-72.3-52.5S52.2 86.1 55.1 73c2-8.8 8.4-15.5 12.4-19a10 10 0 0 1 7.1-2.4l8.3.5a4.3 4.3 0 0 1 3.7 2.6l12 28.2a4.3 4.3 0 0 1-.7 4.5l-10.4 12a3.2 3.2 0 0 0-.4 3.5c13.8 26.6 38.9 37.1 46.4 39.8a3.1 3.1 0 0 0 3.5-1l11-14.2a4.3 4.3 0 0 1 5.2-1.3l27.9 12.8a4.3 4.3 0 0 1 2.4 4.8z"/></symbol></svg>