<svg 
 xmlns="http://www.w3.org/2000/svg"
 xmlns:xlink="http://www.w3.org/1999/xlink">
<path fill-rule="evenodd"
 d="M6.042,20.000 L6.042,17.000 L18.042,17.000 L18.042,20.000 L6.042,20.000 ZM6.042,9.000 L18.042,9.000 L18.042,12.000 L6.042,12.000 L6.042,9.000 ZM6.042,1.000 L18.042,1.000 L18.042,4.000 L6.042,4.000 L6.042,1.000 ZM0.917,16.750 L3.917,16.750 L3.917,19.750 L0.917,19.750 L0.917,16.750 ZM0.917,8.750 L3.917,8.750 L3.917,11.750 L0.917,11.750 L0.917,8.750 ZM0.917,0.750 L3.917,0.750 L3.917,3.750 L0.917,3.750 L0.917,0.750 Z"/>
</svg>