<svg xmlns="http://www.w3.org/2000/svg" viewBox="0 0 146.2 193.7"><title>KRсистемы-лого-квадрат-rus-lightblue(1)</title><path d="M134.5,0H11.8A11.8,11.8,0,0,0,0,11.8V182a11.8,11.8,0,0,0,11.8,11.8H134.5A11.8,11.8,0,0,0,146.2,182V11.8A11.8,11.8,0,0,0,134.5,0Z" style="fill:#00a8e1"/><path d="M108.2,107q-3,2.5-9.7,2.5H91.9l7.5,14.2a52,52,0,0,0,10.1-1.1,27.5,27.5,0,0,0,9.6-3.9,20.8,20.8,0,0,0,6.8-7.4,23.9,23.9,0,0,0,2.6-11.6v-.9a23.9,23.9,0,0,0-2.6-11.6,20.8,20.8,0,0,0-6.8-7.4,26.8,26.8,0,0,0-9.6-3.9,55.7,55.7,0,0,0-11.1-1.1l-7.2.2-15-27.2a5.3,5.3,0,1,0-2.6.7V75.3H57.3a2.4,2.4,0,0,0-2.2,1.2L33.2,109V77.2a1.8,1.8,0,0,0-.6-1.3,2,2,0,0,0-1.4-.5H18.1a2,2,0,0,0-1.4.5,1.8,1.8,0,0,0-.6,1.3v70.3a2,2,0,0,0,2,2H31.2a2,2,0,0,0,2-2V115.2l20.3,33,.8,1a2,2,0,0,0,1.3.4H88.4a2,2,0,0,0,2-2V88.9h8.1q6.3,0,9.5,2.2t3.2,7.6v.9Q111.2,104.5,108.2,107ZM73.5,79.7c0,.3,0,.5,0,.8v66.4L49.9,111.6,73.5,78.1v1.7ZM68.3,69.2V64a22.1,22.1,0,1,1,20.5-5.3l2.5,4.5a27.1,27.1,0,1,0-23,5.9Zm18-15.1a17,17,0,1,0-18,4.6V53.3a11.9,11.9,0,1,1,15.3-3.9ZM42.8,161.2H40.5a1.1,1.1,0,0,0-.5.5l-7.1,11.9h-.1V161.8a.6.6,0,0,0-.2-.4h-2c-.4,0-.5.2-.5.6V177a.9.9,0,0,0,.9.9h2.3l.4-.4,7-11.9c.1-.1.1-.1.1,0v11.8a.6.6,0,0,0,.2.4l.4.2H43l.4-.2a.6.6,0,0,0,.2-.4V162.1a1.1,1.1,0,0,0-.2-.7Zm-16.6.1-1.7-.2h-2a6.8,6.8,0,0,0-2.8.5,5.6,5.6,0,0,0-2,1.5,6.5,6.5,0,0,0-1.2,2.3,10.2,10.2,0,0,0-.4,3v2.4a10.2,10.2,0,0,0,.4,3,6.3,6.3,0,0,0,1.3,2.3,5.7,5.7,0,0,0,2,1.5,6.7,6.7,0,0,0,2.7.5h2l1.7-.2.5-.2a.7.7,0,0,0,.1-.5V176a.4.4,0,0,0-.2-.4h-.4l-1.8.2H22.4a3.4,3.4,0,0,1-2.8-1.2,6.1,6.1,0,0,1-1-3.8v-2.4a6,6,0,0,1,1-3.8,3.4,3.4,0,0,1,2.8-1.2h1.9l1.8.2h.4a.4.4,0,0,0,.2-.4V162a.7.7,0,0,0-.1-.5Zm31.2,0-1.7-.2h-2a6.8,6.8,0,0,0-2.8.5,5.6,5.6,0,0,0-2,1.5,6.5,6.5,0,0,0-1.2,2.3,10.2,10.2,0,0,0-.4,3v2.4a10.2,10.2,0,0,0,.4,3,6.3,6.3,0,0,0,1.3,2.3,5.7,5.7,0,0,0,2,1.5,6.7,6.7,0,0,0,2.7.5h2l1.7-.2.5-.2a.7.7,0,0,0,.1-.5V176a.4.4,0,0,0-.2-.4h-.4l-1.8.2H53.6a3.4,3.4,0,0,1-2.8-1.2,6.1,6.1,0,0,1-1-3.8v-2.4a6,6,0,0,1,1-3.8,3.4,3.4,0,0,1,2.8-1.2h1.9l1.8.2h.4a.4.4,0,0,0,.2-.4V162a.7.7,0,0,0-.1-.5Zm66.5,7.4a7.4,7.4,0,0,0-2.4-.9l-3-.3h-2.8v-5.9a.6.6,0,0,0-.2-.4l-.4-.2h-1.5l-.4.2a.6.6,0,0,0-.2.4v15.2a.8.8,0,0,0,.2.6l.7.2h4.6l3-.3a7.4,7.4,0,0,0,2.4-.9,4.5,4.5,0,0,0,1.6-1.6,4.7,4.7,0,0,0,.6-2.4v-.2a4.7,4.7,0,0,0-.6-2.4A4.5,4.5,0,0,0,123.9,168.8Zm-.5,4.2a2.2,2.2,0,0,1-1.3,2.2,9,9,0,0,1-3.8.6h-2.8v-5.6h2.8a9,9,0,0,1,3.8.6,2.2,2.2,0,0,1,1.3,2.2Zm-15.2-11.8h-2.6l-.4.4-4.3,7.8-.2.2-.2-.2-4.3-7.8-.4-.4H93.4l-.4.2a.6.6,0,0,0-.2.4v15.5a.6.6,0,0,0,.2.4l.4.2h1.4l.4-.2a.6.6,0,0,0,.2-.4V164.5l3.5,6.4.5.5.8.2h1.2l.8-.2.5-.5,3.5-6.4v12.8a.6.6,0,0,0,.2.4l.4.2h1.4l.4-.2a.6.6,0,0,0,.2-.4V161.8a.6.6,0,0,0-.2-.4Zm-20.7,1.7a5.5,5.5,0,0,0-2.1-1.4,7.8,7.8,0,0,0-2.9-.5,6.4,6.4,0,0,0-5,1.9,7.4,7.4,0,0,0-1.7,5.2v2.7a9.1,9.1,0,0,0,.6,3.5,6,6,0,0,0,1.5,2.2,5.6,5.6,0,0,0,2.2,1.2,9.4,9.4,0,0,0,2.5.3h2.8l2.6-.4.5-.2a.8.8,0,0,0,.1-.5v-1a.4.4,0,0,0-.2-.4h-.5l-2.6.2H82.7a4.1,4.1,0,0,1-3.2-1.1,5.5,5.5,0,0,1-1.1-3.8v-.4H88.6q.6,0,.6-.7v-1.6a9.5,9.5,0,0,0-.4-2.9A6.1,6.1,0,0,0,87.5,162.9Zm-1,5.4h-8v-.3a5.3,5.3,0,0,1,1-3.6,3.9,3.9,0,0,1,3-1.2,3.8,3.8,0,0,1,3,1.1,5.4,5.4,0,0,1,1,3.7v.3Zm-12.9-7.2H61l-.4.2a.6.6,0,0,0-.2.4v1a.6.6,0,0,0,.2.4l.4.2h5v13.9a.6.6,0,0,0,.2.4l.4.2H68l.4-.2a.6.6,0,0,0,.2-.4V163.4h5l.4-.2a.6.6,0,0,0,.2-.4v-1a.6.6,0,0,0-.2-.4Zm57.3.2-.4-.2h-1.5l-.4.2a.6.6,0,0,0-.2.4v15.5a.6.6,0,0,0,.2.4l.4.2h1.5l.4-.2a.6.6,0,0,0,.2-.4V161.8A.6.6,0,0,0,131,161.4ZM114,149.5h15.4q1.5,0,1.5-1.2a2.5,2.5,0,0,0-.3-1.1l-12.1-22.4a33.9,33.9,0,0,1-8,2.8,56.5,56.5,0,0,1-8.4,1.1l9.9,18.8.8,1.4A1.4,1.4,0,0,0,114,149.5Z" style="fill:#fff"/></svg>